<mxfile host="app.diagrams.net" modified="2021-08-07T07:47:33.886Z" agent="5.0 (Windows NT 10.0; Win64; x64) AppleWebKit/537.36 (KHTML, like Gecko) Chrome/92.0.4515.131 Safari/537.36" etag="Oz-yoOkmA4QvJTR7Tgu2" version="14.9.5" type="github">
  <diagram id="CorUk7HUXJxeiM6xlHDV" name="Page-1">
    <mxGraphModel dx="1422" dy="772" grid="1" gridSize="10" guides="1" tooltips="1" connect="1" arrows="1" fold="1" page="1" pageScale="1" pageWidth="827" pageHeight="1169" math="0" shadow="0">
      <root>
        <mxCell id="0" />
        <mxCell id="1" parent="0" />
        <mxCell id="OTtNzMurKzjWnPa9QM11-7" style="edgeStyle=orthogonalEdgeStyle;rounded=0;orthogonalLoop=1;jettySize=auto;html=1;exitX=1;exitY=0.3333333333333333;exitDx=0;exitDy=0;exitPerimeter=0;entryX=0;entryY=0.5;entryDx=0;entryDy=0;" edge="1" parent="1" source="OTtNzMurKzjWnPa9QM11-1" target="OTtNzMurKzjWnPa9QM11-2">
          <mxGeometry relative="1" as="geometry" />
        </mxCell>
        <mxCell id="OTtNzMurKzjWnPa9QM11-8" style="edgeStyle=orthogonalEdgeStyle;rounded=0;orthogonalLoop=1;jettySize=auto;html=1;exitX=1;exitY=0.3333333333333333;exitDx=0;exitDy=0;exitPerimeter=0;entryX=0;entryY=0.5;entryDx=0;entryDy=0;" edge="1" parent="1" source="OTtNzMurKzjWnPa9QM11-1" target="OTtNzMurKzjWnPa9QM11-3">
          <mxGeometry relative="1" as="geometry" />
        </mxCell>
        <mxCell id="OTtNzMurKzjWnPa9QM11-9" style="edgeStyle=orthogonalEdgeStyle;rounded=0;orthogonalLoop=1;jettySize=auto;html=1;exitX=1;exitY=0.3333333333333333;exitDx=0;exitDy=0;exitPerimeter=0;entryX=0;entryY=0.5;entryDx=0;entryDy=0;" edge="1" parent="1" source="OTtNzMurKzjWnPa9QM11-1" target="OTtNzMurKzjWnPa9QM11-4">
          <mxGeometry relative="1" as="geometry" />
        </mxCell>
        <mxCell id="OTtNzMurKzjWnPa9QM11-11" style="edgeStyle=orthogonalEdgeStyle;rounded=0;orthogonalLoop=1;jettySize=auto;html=1;exitX=1;exitY=0.3333333333333333;exitDx=0;exitDy=0;exitPerimeter=0;entryX=0;entryY=0.5;entryDx=0;entryDy=0;" edge="1" parent="1" source="OTtNzMurKzjWnPa9QM11-1" target="OTtNzMurKzjWnPa9QM11-5">
          <mxGeometry relative="1" as="geometry" />
        </mxCell>
        <mxCell id="OTtNzMurKzjWnPa9QM11-1" value="用户" style="shape=umlActor;verticalLabelPosition=bottom;verticalAlign=top;html=1;outlineConnect=0;" vertex="1" parent="1">
          <mxGeometry x="80" y="380" width="30" height="60" as="geometry" />
        </mxCell>
        <mxCell id="OTtNzMurKzjWnPa9QM11-2" value="注册" style="ellipse;whiteSpace=wrap;html=1;" vertex="1" parent="1">
          <mxGeometry x="280" y="210" width="120" height="80" as="geometry" />
        </mxCell>
        <mxCell id="OTtNzMurKzjWnPa9QM11-3" value="登陆" style="ellipse;whiteSpace=wrap;html=1;" vertex="1" parent="1">
          <mxGeometry x="280" y="310" width="120" height="80" as="geometry" />
        </mxCell>
        <mxCell id="OTtNzMurKzjWnPa9QM11-4" value="忘记密码" style="ellipse;whiteSpace=wrap;html=1;" vertex="1" parent="1">
          <mxGeometry x="280" y="410" width="120" height="80" as="geometry" />
        </mxCell>
        <mxCell id="OTtNzMurKzjWnPa9QM11-5" value="个人资料修改" style="ellipse;whiteSpace=wrap;html=1;" vertex="1" parent="1">
          <mxGeometry x="280" y="510" width="120" height="80" as="geometry" />
        </mxCell>
      </root>
    </mxGraphModel>
  </diagram>
</mxfile>
